<svg xmlns="http://www.w3.org/2000/svg" xmlns:xlink="http://www.w3.org/1999/xlink" id="Capa_1" width="32" height="32" x="0" y="0" enable-background="new 0 0 32 32" version="1.1" viewBox="0 0 32 32" xml:space="preserve"><path id="stroke_1_" fill="none" stroke="#000" stroke-miterlimit="10" d="M2.5,10.5c0,0,0-2,2-2h23c0,0,2,0,2,2v14h-27V10.5z M2.5,20.5h27 M7.5,24.5v-2h-3v2 M12.5,24.5v-2h-3v2 M17.5,24.5v-2h-3v2 M22.5,24.5v-2h-3v2 M27.5,24.5v-2h-3v2 M5.5,8.5v8	c0,0,0,1,1,1h19c0,0,1,0,1-1s0-8,0-8 M5.5,15.5h-3 M5.5,11.5h-3 M29.5,15.5h-3 M29.5,11.5h-3"/></svg>