<svg xmlns="http://www.w3.org/2000/svg" xmlns:xlink="http://www.w3.org/1999/xlink" id="Capa_1" width="32" height="32" x="0" y="0" enable-background="new 0 0 32 32" version="1.1" viewBox="0 0 32 32" xml:space="preserve"><path fill="none" stroke="#000" stroke-linecap="round" stroke-linejoin="round" stroke-miterlimit="10" d="M10.5,13.5	c0,0,3,0,3,3c0,0,0,6-5,6s-5-6-5-6s0-3,3-3H10.5z M21.5,13.5c-3,0-3,3-3,3s0,6,5,6s5-6,5-6c0-3-3-3-3-3H21.5z M13.5,16.5h5 M10.5,13.5h12 M4.484,19.594l6.75-5.781 M19.5,19.609l6.688-5.75 M10.5,9.5l-2-2l-3.938,6.578 M27.469,14.078L23.531,7.5l-2,2 M15.5,23.5v2 M14.5,24.5h2 M27.5,2.5v2 M26.5,3.5h2 M5.5,24.5v4 M3.5,26.5h4 M4.5,3.5v2 M3.5,4.5h2 M25.5,25.5v2 M24.5,26.5h2 M17.5,3.5v4 M15.5,5.5h4"/></svg>