<svg xmlns="http://www.w3.org/2000/svg" xmlns:xlink="http://www.w3.org/1999/xlink" id="Capa_1" width="32" height="32" x="0" y="0" enable-background="new 0 0 32 32" version="1.1" viewBox="0 0 32 32" xml:space="preserve"><g id="color"><path fill="#663616" d="M1.5,9.5c0,0,0-2,2-2h24c0,0,2,0,2,2v12c0,0,0,2-2,2h-24c0,0-2,0-2-2V9.5z"/><rect width="24" height="11" x="3.5" y="10.5" fill="#FFF"/><path d="M4,11h3v9H4V11z M11,20h5v-9h-5V20z M20,20h4v-9h-4V20z" opacity=".15"/><rect width="24" height="1.5" x="3.5" y="20" opacity=".4"/></g><g id="stroke"><path id="base" fill="none" stroke="#000" stroke-miterlimit="10" d="M1.5,9.5c0,0,0-2,2-2h24c0,0,2,0,2,2v12c0,0,0,2-2,2h-24 c0,0-2,0-2-2V9.5z M27.5,10.5h-24v11h24V10.5z"/><path id="key" fill="none" stroke="#000" stroke-miterlimit="10" stroke-width="2" d="M7,16v-5 M11,16v-5 M16,16v-5 M20,16v-5 M24,16v-5"/></g></svg>