<svg xmlns="http://www.w3.org/2000/svg" xmlns:xlink="http://www.w3.org/1999/xlink" id="Capa_1" width="32" height="32" x="0" y="0" enable-background="new 0 0 32 32" version="1.1" viewBox="0 0 32 32" xml:space="preserve"><path id="color" fill="#FF5086" d="M29.5,12.49c0,6.23-6.23,11.85-13.5,16c-7.27-4.15-13.5-9.771-13.5-16c0-3.11,2-8.98,7.5-8.98	s6,5,6,5s0.5-5,6-5S29.5,9.38,29.5,12.49z"/><path id="stroke" fill="none" stroke="#000" stroke-linecap="round" stroke-linejoin="round" stroke-miterlimit="10" d="M29.5,12.49c0,6.23-6.23,11.85-13.5,16c-7.27-4.15-13.5-9.771-13.5-16c0-3.11,2-8.98,7.5-8.98s6,5,6,5s0.5-5,6-5	S29.5,9.38,29.5,12.49z"/></svg>